:FULLY-SPECIFIED
:FORCE-ALL-JOINTS-BE-3DOF
:DEGREES
275
root 9.90343 16.6762 1.92429 8.16392 -1.46399 3.91979
lfemur -7.96058 5.62519 -30.1857
ltibia 9.47372 0 0
lfoot -14.4242 2.41929 0
ltoes 3.47723 0 0
rfemur -24.7379 9.30555 3.64238
rtibia 41.6223 0 0
rfoot -11.5391 -15.1607 0
rtoes -22.3858 0 0
lowerback -6.96078 -1.76141 -5.36486
upperback -1.48382 -1.9599 1.43608
thorax 2.81562 -1.04857 4.1493
lowerneck -19.6803 -4.69923 -12.8164
upperneck 20.1251 -5.70072 12.5812
head 10.4448 -2.18951 5.84061
lclavicle -3.83371e-14 -3.68881e-15 0
lhumerus -22.5737 -21.4682 87.6126
lradius 30.2967 0 0
lwrist 6.62281 0 0
lhand -9.24414 -21.9996 0
lfingers 7.12502 0 0
lthumb 16.7116 7.30376 0
rclavicle -3.83371e-14 -3.68881e-15 0
rhumerus -49.3889 6.58514 -84.5325
rradius 36.352 0 0
rwrist -19.7883 0 0
rhand -28.7603 -28.1097 0
rfingers 7.12502 0 0
rthumb -2.12016 -58.0783 0
276
root 9.91352 16.6775 2.0529 8.14148 -1.1199 4.03043
lfemur -6.82508 5.47788 -30.2488
ltibia 8.53051 0 0
lfoot -14.5048 2.27108 0
ltoes 3.44092 0 0
rfemur -25.6965 9.76919 3.21957
rtibia 40.9201 0 0
rfoot -12.5282 -15.5317 0
rtoes -22.4254 0 0
lowerback -7.02016 -1.91438 -5.47879
upperback -1.45087 -2.15289 1.44676
thorax 2.90784 -1.14856 4.20363
lowerneck -19.6398 -4.68589 -12.811
upperneck 20.1998 -5.68792 12.5513
head 10.4608 -2.18807 5.83323
lclavicle -3.93142e-14 -3.73578e-15 0
lhumerus -21.916 -22.1333 87.6323
lradius 30.6625 0 0
lwrist 7.12781 0 0
lhand -9.30247 -21.9539 0
lfingers 7.12502 0 0
lthumb 16.6554 7.3541 0
rclavicle -3.93142e-14 -3.73578e-15 0
rhumerus -49.4821 6.4937 -84.4419
rradius 36.2358 0 0
rwrist -19.7223 0 0
rhand -28.7246 -28.0738 0
rfingers 7.12502 0 0
rthumb -2.08569 -58.0428 0
277
root 9.92321 16.6788 2.18122 8.11845 -0.776517 4.13565
lfemur -5.71576 5.3343 -30.3022
ltibia 7.63526 0 0
lfoot -14.5795 2.13023 0
ltoes 3.40057 0 0
rfemur -26.6366 10.2221 2.81751
rtibia 40.225 0 0
rfoot -13.502 -15.8868 0
rtoes -22.4588 0 0
lowerback -7.07796 -2.06468 -5.58813
upperback -1.41838 -2.34276 1.45801
thorax 2.99811 -1.24689 4.25643
lowerneck -19.6001 -4.6736 -12.8061
upperneck 20.2735 -5.67664 12.5228
head 10.4768 -2.18717 5.82617
lclavicle -4.0237e-14 -3.77735e-15 0
lhumerus -21.2796 -22.7873 87.6587
lradius 31.0198 0 0
lwrist 7.62548 0 0
lhand -9.36236 -21.9082 0
lfingers 7.12502 0 0
lthumb 16.5977 7.40449 0
rclavicle -4.0237e-14 -3.77735e-15 0
rhumerus -49.5687 6.40812 -84.3533
rradius 36.1238 0 0
rwrist -19.6592 0 0
rhand -28.6903 -28.038 0
rfingers 7.12502 0 0
rthumb -2.05261 -58.0073 0
278
root 9.9325 16.6801 2.30928 8.09486 -0.43419 4.23553
lfemur -4.63294 5.19451 -30.3462
ltibia 6.78735 0 0
lfoot -14.6485 1.99665 0
ltoes 3.35636 0 0
rfemur -27.5578 10.6643 2.43594
rtibia 39.5373 0 0
rfoot -14.46 -16.2263 0
rtoes -22.4859 0 0
lowerback -7.13417 -2.21226 -5.69293
upperback -1.38636 -2.52941 1.46981
thorax 3.08639 -1.34352 4.3077
lowerneck -19.5612 -4.66233 -12.8016
upperneck 20.346 -5.66684 12.4956
head 10.4929 -2.1868 5.81941
lclavicle -4.11063e-14 -3.81365e-15 0
lhumerus -20.6644 -23.43 87.6916
lradius 31.3683 0 0
lwrist 8.11551 0 0
lhand -9.42369 -21.8625 0
lfingers 7.12502 0 0
lthumb 16.5387 7.45486 0
rclavicle -4.11063e-14 -3.81365e-15 0
rhumerus -49.6488 6.32829 -84.2665
rradius 36.0159 0 0
rwrist -19.5991 0 0
rhand -28.6575 -28.0024 0
rfingers 7.12502 0 0
rthumb -2.0209 -57.972 0
